<svg width="24" height="24" viewBox="0 0 24 24" fill="none" xmlns="http://www.w3.org/2000/svg">
<path d="M2.66667 24C1.93333 24 1.30556 23.7389 0.783333 23.2167C0.261111 22.6944 0 22.0667 0 21.3333V4.66667C0 4.33333 0.0555556 4.03333 0.166667 3.76667C0.277778 3.5 0.422222 3.24444 0.6 3L2.46667 0.733333C2.64444 0.488889 2.86667 0.305556 3.13333 0.183333C3.4 0.0611111 3.68889 0 4 0H20C20.3111 0 20.6 0.0611111 20.8667 0.183333C21.1333 0.305556 21.3556 0.488889 21.5333 0.733333L23.4 3C23.5778 3.24444 23.7222 3.5 23.8333 3.76667C23.9444 4.03333 24 4.33333 24 4.66667V21.3333C24 22.0667 23.7389 22.6944 23.2167 23.2167C22.6944 23.7389 22.0667 24 21.3333 24H2.66667ZM3.2 4H20.8L19.6667 2.66667H4.33333L3.2 4ZM2.66667 6.66667V21.3333H21.3333V6.66667H2.66667ZM12 20L17.3333 14.6667L15.4667 12.8L13.3333 14.9333V9.33333H10.6667V14.9333L8.53333 12.8L6.66667 14.6667L12 20Z" fill="#ffffff"/>
</svg>
