<svg width="22" height="28" viewBox="0 0 22 28" fill="none" xmlns="http://www.w3.org/2000/svg">
<path d="M5.66659 22H16.3333V19.3333H5.66659V22ZM5.66659 16.6667H16.3333V14H5.66659V16.6667ZM2.99992 27.3333C2.26659 27.3333 1.63881 27.0722 1.11659 26.55C0.594363 26.0278 0.333252 25.4 0.333252 24.6667V3.33333C0.333252 2.6 0.594363 1.97222 1.11659 1.45C1.63881 0.927775 2.26659 0.666664 2.99992 0.666664H13.6666L21.6666 8.66666V24.6667C21.6666 25.4 21.4055 26.0278 20.8833 26.55C20.361 27.0722 19.7333 27.3333 18.9999 27.3333H2.99992ZM12.3333 10V3.33333H2.99992V24.6667H18.9999V10H12.3333Z" fill="white"/>
</svg>
