<svg width="28" height="28" viewBox="0 0 28 28" fill="none" xmlns="http://www.w3.org/2000/svg">
<path d="M14.0001 27.3333C12.1556 27.3333 10.4223 26.9833 8.80008 26.2833C7.17786 25.5833 5.76675 24.6333 4.56675 23.4333C3.36675 22.2333 2.41675 20.8222 1.71675 19.2C1.01675 17.5778 0.666748 15.8444 0.666748 14C0.666748 12.1556 1.01675 10.4222 1.71675 8.8C2.41675 7.17778 3.36675 5.76667 4.56675 4.56667C5.76675 3.36667 7.17786 2.41667 8.80008 1.71667C10.4223 1.01667 12.1556 0.666668 14.0001 0.666668C15.4445 0.666668 16.8112 0.877779 18.1001 1.3C19.389 1.72222 20.5779 2.31111 21.6667 3.06667L19.7334 5.03333C18.889 4.5 17.989 4.08333 17.0334 3.78333C16.0779 3.48333 15.0667 3.33333 14.0001 3.33333C11.0445 3.33333 8.52786 4.37222 6.45008 6.45C4.3723 8.52778 3.33341 11.0444 3.33341 14C3.33341 16.9556 4.3723 19.4722 6.45008 21.55C8.52786 23.6278 11.0445 24.6667 14.0001 24.6667C16.9556 24.6667 19.4723 23.6278 21.5501 21.55C23.6279 19.4722 24.6667 16.9556 24.6667 14C24.6667 13.6 24.6445 13.2 24.6001 12.8C24.5556 12.4 24.489 12.0111 24.4001 11.6333L26.5667 9.46667C26.8112 10.1778 27.0001 10.9111 27.1334 11.6667C27.2667 12.4222 27.3334 13.2 27.3334 14C27.3334 15.8444 26.9834 17.5778 26.2834 19.2C25.5834 20.8222 24.6334 22.2333 23.4334 23.4333C22.2334 24.6333 20.8223 25.5833 19.2001 26.2833C17.5779 26.9833 15.8445 27.3333 14.0001 27.3333ZM12.1334 20.1333L6.46675 14.4667L8.33341 12.6L12.1334 16.4L25.4667 3.03333L27.3334 4.9L12.1334 20.1333Z" fill="#ffffff"/>
</svg>
